<svg width="430" height="430" viewBox="0 0 430 430" fill="none" xmlns="http://www.w3.org/2000/svg">
<rect x="7.5" y="7.5" width="415" height="415" fill="#F9F9F9" stroke="#D9D9D9" stroke-width="15"/>
<circle cx="340" cy="90" r="35" fill="#D9D9D9"/>
<path d="M15 265C15 265 77.3311 256.512 115.75 265C158.64 274.476 174.475 302.225 216.5 315C290.668 337.546 415 315 415 315V415H15V265Z" fill="#D9D9D9"/>
<rect x="305" y="276" width="70" height="50" rx="1" fill="#D9D9D9"/>
<path d="M339.345 240.567C339.721 240.242 340.279 240.242 340.655 240.567L381.274 275.744C381.974 276.35 381.545 277.5 380.619 277.5H299.381C298.455 277.5 298.026 276.35 298.726 275.744L339.345 240.567Z" fill="#D9D9D9"/>
<path d="M52.5 381.667H50.4167V377.5C50.4167 371.75 45.75 367.083 40 367.083C34.25 367.083 29.5834 371.75 29.5834 377.5V381.667H27.5C25.2084 381.667 23.3334 383.542 23.3334 385.833V406.667C23.3334 408.958 25.2084 410.833 27.5 410.833H52.5C54.7917 410.833 56.6667 408.958 56.6667 406.667V385.833C56.6667 383.542 54.7917 381.667 52.5 381.667ZM46.4584 381.667H33.5417V377.5C33.5417 373.937 36.4375 371.042 40 371.042C43.5625 371.042 46.4584 373.937 46.4584 377.5V381.667Z" fill="black"/>
<path d="M40 385.833C34.25 385.833 29.5834 390.5 29.5834 396.25C29.5834 402 34.25 406.667 40 406.667C45.75 406.667 50.4167 402 50.4167 396.25C50.4167 390.5 45.75 385.833 40 385.833ZM41.4688 402.594V404.583H38.6875V402.573C36.9063 402.198 35.3959 401.052 35.2813 399.031H37.323C37.4271 400.125 38.1771 400.979 40.0834 400.979C42.125 400.979 42.5834 399.958 42.5834 399.323C42.5834 398.458 42.125 397.646 39.8021 397.094C37.2188 396.469 35.448 395.406 35.448 393.271C35.448 391.479 36.8959 390.312 38.6875 389.927V387.917H41.4688V389.948C43.4063 390.417 44.375 391.885 44.4375 393.479H42.3959C42.3438 392.323 41.7292 391.531 40.0834 391.531C38.5209 391.531 37.5834 392.24 37.5834 393.24C37.5834 394.115 38.2605 394.687 40.3646 395.229C42.4688 395.771 44.7188 396.677 44.7188 399.302C44.7084 401.208 43.2813 402.25 41.4688 402.594Z" fill="white"/>
</svg>
